<svg width="40" height="40" viewBox="0 0 40 40" fill="none" xmlns="http://www.w3.org/2000/svg">
  <!-- Background circle -->
  <circle cx="20" cy="20" r="18" fill="#dc2626" opacity="0.1"/>
  
  <!-- PDF Document shape -->
  <path d="M12 8C12 6.89543 12.8954 6 14 6H22L28 12V32C28 33.1046 27.1046 34 26 34H14C12.8954 34 12 33.1046 12 32V8Z" 
        fill="white" 
        stroke="#1a1a1a" 
        stroke-width="1.5"/>
  
  <!-- Folded corner -->
  <path d="M22 6V11C22 11.5523 22.4477 12 23 12H28" 
        fill="#f5f5f5" 
        stroke="#1a1a1a" 
        stroke-width="1.5" 
        stroke-linejoin="round"/>
  
  <!-- Red accent bars (representing text/content) -->
  <rect x="15" y="16" width="10" height="2" rx="1" fill="#dc2626"/>
  <rect x="15" y="20" width="8" height="2" rx="1" fill="#dc2626" opacity="0.7"/>
  <rect x="15" y="24" width="10" height="2" rx="1" fill="#dc2626" opacity="0.5"/>
  <rect x="15" y="28" width="6" height="2" rx="1" fill="#dc2626" opacity="0.3"/>
  
  <!-- K letter overlay (minimalist) -->
  <path d="M18 18 L18 26 M18 22 L21 18 M18 22 L21 26" 
        stroke="#1a1a1a" 
        stroke-width="1.5" 
        stroke-linecap="round" 
        stroke-linejoin="round"
        opacity="0.3"/>
</svg>
